<svg width="847" height="854" viewBox="0 0 847 854" fill="none" xmlns="http://www.w3.org/2000/svg">
<path fill-rule="evenodd" clip-rule="evenodd" d="M434.226 7.56913C535.794 25.2047 598.024 114.985 670.335 188.391C741.68 260.816 832.5 323.396 844.714 424.276C858.045 534.376 811.961 644.855 735.315 725.079C656.946 807.107 547.708 856.124 434.226 853.929C322.704 851.773 223.641 792.255 144.57 713.657C65.2646 634.825 10.1634 535.744 1.99055 424.276C-6.84772 303.733 11.7241 173.079 98.781 89.1498C184.868 6.1553 316.359 -12.8965 434.226 7.56913Z" fill="#D95851"/>
<path fill-rule="evenodd" clip-rule="evenodd" d="M423.612 181.49C435.263 181.49 553.289 190.13 613.805 241.98C623.901 250.63 657.03 267.913 665.675 311.124C669.998 332.73 670.231 345.111 665.675 362.978C660.998 381.324 637.01 403.232 613.805 414.831C596.515 423.473 589.536 421.179 587.869 423.473C587.869 423.473 601.125 434.995 613.805 466.685C631.095 509.896 599.347 556.013 570.579 570.392C518.709 596.319 510.063 587.676 492.773 587.676C501.418 639.53 463.513 698.561 432.258 717.308C401.002 736.055 329.781 769.98 250.71 691.381C171.405 612.55 181.549 523.484 181.549 466.682C181.549 423.471 198.84 337.058 233.42 276.555C285.291 207.419 337.161 181.49 423.612 181.49Z" fill="white"/>
<path d="M576.812 421.743C601.71 432.113 610.009 464.608 610.009 486.732C610.009 552.414 550.531 579.378 495.202 579.378C493.127 579.378 490.361 579.378 487.594 578.686C487.594 580.069 487.594 581.452 487.594 582.835L488.286 591.131C488.286 674.097 435.724 736.321 349.964 736.321C316.075 736.321 289.103 721.111 267.663 698.987C203.343 656.812 183.287 565.55 183.287 493.646C183.287 479.127 183.978 463.917 185.361 449.398C198.502 312.504 253.831 190.821 412.901 190.821C464.771 190.821 567.129 196.352 611.392 246.823C638.365 263.416 657.038 288.997 657.038 325.641C657.038 377.494 621.075 410.681 576.812 421.743ZM426.733 548.265L428.808 544.117C435.032 549.648 451.631 553.796 471.687 553.796C516.642 553.796 580.27 533.055 580.27 466.682C580.27 436.262 568.513 406.532 536.699 404.458C517.334 407.915 499.352 407.224 481.37 399.618L482.753 394.779C491.744 398.927 503.501 401.001 517.334 401.001C561.596 401.001 621.766 377.494 627.299 314.579C632.832 255.811 587.186 196.352 412.901 196.352C278.728 196.352 206.11 286.232 190.894 450.089C175.679 612.564 245.531 710.74 325.758 710.74C409.443 710.74 466.154 647.133 457.855 557.945C443.331 557.253 431.574 553.105 426.733 548.265ZM302.243 250.971C298.094 248.897 308.468 237.835 325.066 228.847C343.048 219.168 357.572 217.785 361.03 219.859C365.18 223.316 356.88 227.464 339.59 236.452C321.608 246.132 307.084 253.737 302.243 250.971ZM228.933 421.743L220.633 420.36C222.708 367.124 241.382 302.825 279.42 268.947L283.57 273.096C249.681 310.43 228.933 374.037 228.933 421.743Z" fill="#D95851"/>
</svg>
