<svg xmlns="http://www.w3.org/2000/svg" height="24px" viewBox="0 -960 960 960" width="24px" fill="#e3e3e3"><path d="M201.05-70.78q-79.38 0-135.21-55.85Q10-182.47 10-261.7q0-79.23 55.81-135.32 55.81-56.09 135-56.09 79.84 0 135.68 55.73t55.84 135.33q0 79.59-55.95 135.43T201.05-70.78Zm-.18-95.35q39.8 0 67.95-27.86 28.16-27.86 28.16-67.66t-27.86-67.96q-27.87-28.15-67.67-28.15T133.5-329.9q-28.15 27.86-28.15 67.66 0 39.81 27.86 67.96 27.86 28.15 67.66 28.15Zm330.65-439.72-86.45 86.46 54.69 58.63q13.39 14.25 20.65 32.03 7.26 17.78 7.26 37.62v168.65q0 19.46-14.1 33.57-14.11 14.11-33.57 14.11t-33.57-14.11q-14.1-14.11-14.1-33.57v-153.41L308.28-485.61q-13.19-11.52-20.07-27.03-6.88-15.52-6.88-32.64t6.56-32.69q6.57-15.57 19.26-27.77l117.62-116.61q12.18-12.11 28.05-18.99 15.87-6.88 32.88-6.88 17.69 0 34.95 6.07 17.26 6.06 29.89 18.69l77.68 76.91q19.82 19.59 43.97 34 24.14 14.4 50.18 19.96 19.05 3.84 29.7 20.48 10.65 16.63 7.14 35.58-3.51 18.94-20.37 29.87-16.86 10.92-35.75 7.29-40.73-8.56-76.97-28.85-36.25-20.28-66.05-49.58l-28.55-28.05Zm95.72-128.76q-34.59 0-58.62-24.03-24.03-24.03-24.03-58.62 0-34.59 24.03-58.62 24.03-24.03 58.62-24.03 34.59 0 58.62 24.03 24.03 24.03 24.03 58.62 0 34.59-24.03 58.62-24.03 24.03-58.62 24.03ZM757.69-70.78q-78.77 0-134.39-55.85-55.63-55.84-55.63-135.07 0-79.23 55.52-135.32 55.52-56.09 134.29-56.09 79.81 0 136.16 55.73Q950-341.65 950-261.8q0 79.84-56.25 135.43T757.69-70.78Zm.86-95.35q39.8 0 67.95-27.86 28.15-27.86 28.15-67.66t-27.86-67.96q-27.86-28.15-67.66-28.15t-67.95 27.86q-28.16 27.86-28.16 67.66 0 39.81 27.86 67.96 27.87 28.15 67.67 28.15Z"/></svg>